<svg width="24" height="24" viewBox="0 0 24 24" fill="none" xmlns="http://www.w3.org/2000/svg">
<g id="Twitter Original *" clip-path="url(#clip0_2113_44)">
<g id="Logo_1_">
<path id="white_background" d="M20.8867 7.39931C20.9003 7.59619 20.9003 7.79306 20.9003 7.99175C20.9003 14.0459 16.2914 21.0281 7.8639 21.0281V21.0245C5.37439 21.0281 2.93659 20.315 0.84082 18.9705C1.20282 19.014 1.56663 19.0358 1.93134 19.0367C3.99445 19.0385 5.99858 18.3463 7.62167 17.0716C5.66108 17.0344 3.94183 15.7561 3.34122 13.8898C4.02802 14.0223 4.73568 13.9951 5.40977 13.8109C3.27227 13.3791 1.73447 11.501 1.73447 9.31998C1.73447 9.30002 1.73447 9.28097 1.73447 9.26191C2.37136 9.61665 3.08447 9.81353 3.81391 9.8353C1.8007 8.48984 1.18013 5.81161 2.39586 3.71766C4.72207 6.58006 8.15423 8.32018 11.8386 8.50435C11.4693 6.91302 11.9738 5.24548 13.1641 4.12683C15.0095 2.39215 17.9118 2.48107 19.6465 4.32552C20.6726 4.1232 21.656 3.74669 22.556 3.21322C22.214 4.27381 21.4982 5.17472 20.5419 5.7472C21.4501 5.64014 22.3374 5.39699 23.173 5.02592C22.5579 5.9477 21.7831 6.75062 20.8867 7.39931Z" fill="white"/>
</g>
</g>
<defs>
<clipPath id="clip0_2113_44">
<rect width="22.5" height="22.5" fill="white" transform="translate(0.75 0.75)"/>
</clipPath>
</defs>
</svg>
